<svg width="44" height="44" viewBox="0 0 44 44" fill="none" xmlns="http://www.w3.org/2000/svg">
<rect width="44" height="44" rx="8" fill="#397DFF"/>
<path d="M31.2209 9.0997C30.5724 8.42296 29.6419 8 28.6549 8H15.3458C14.3307 8 13.4284 8.42296 12.7798 9.0715C12.1313 9.72004 11.7083 10.6506 11.7083 11.6375V32.3625C11.7083 33.3776 12.1313 34.28 12.7798 34.9285C13.4284 35.577 14.3589 36 15.3458 36H28.6549C29.67 36 30.5724 35.577 31.2209 34.9285C31.8694 34.28 32.2924 33.3494 32.2924 32.3625V11.6657C32.2924 10.6506 31.8694 9.74824 31.2209 9.0997ZM30.8825 32.3625C30.8825 32.9829 30.6288 33.5186 30.234 33.9416C29.8392 34.3364 29.2753 34.5901 28.6549 34.5901H15.3458C14.7254 34.5901 14.1897 34.3364 13.7667 33.9416C13.372 33.5468 13.1182 32.9829 13.1182 32.3625V11.6657C13.1182 11.0453 13.372 10.5096 13.7667 10.0866C14.1615 9.69184 14.7254 9.43807 15.3458 9.43807H28.6549C29.2753 9.43807 29.811 9.69184 30.234 10.0866C30.6288 10.4814 30.8825 11.0453 30.8825 11.6657V32.3625Z" fill="white"/>
<path d="M22 27.4585C22.4049 27.4585 22.7332 27.1302 22.7332 26.7253C22.7332 26.3204 22.4049 25.9922 22 25.9922C21.5951 25.9922 21.2669 26.3204 21.2669 26.7253C21.2669 27.1302 21.5951 27.4585 22 27.4585Z" fill="white"/>
<path d="M22.0011 20.0396C20.1682 20.0396 18.4764 20.8009 17.2639 21.9852C16.0514 23.1977 15.3183 24.8613 15.3183 26.7223C15.3183 28.5552 16.0796 30.247 17.2639 31.4595C18.4764 32.672 20.14 33.4051 22.0011 33.4051C23.8339 33.4051 25.5257 32.6438 26.7382 31.4595C27.9507 30.247 28.6838 28.5833 28.6838 26.7223C28.6838 24.8895 27.9225 23.1977 26.7382 21.9852C25.5257 20.8009 23.8339 20.0396 22.0011 20.0396ZM25.7231 30.4444C24.7644 31.4031 23.4673 31.9952 22.0011 31.9952C20.5348 31.9952 19.2377 31.4031 18.279 30.4444C17.3203 29.4857 16.7282 28.1886 16.7282 26.7223C16.7282 25.2561 17.3203 23.959 18.279 23.0003C19.2377 22.0416 20.5348 21.4494 22.0011 21.4494C23.4391 21.4494 24.7644 22.0416 25.7231 23.0003C26.6818 23.959 27.274 25.2561 27.274 26.7223C27.2458 28.1604 26.6818 29.4857 25.7231 30.4444Z" fill="white"/>
<path d="M22.0002 22.8906C20.9287 22.8906 19.97 23.3136 19.2932 24.0185C18.5883 24.7235 18.1653 25.6822 18.1653 26.7255C18.1653 27.797 18.5883 28.7557 19.2932 29.4324C19.9982 30.1374 20.9569 30.5603 22.0002 30.5603C23.0717 30.5603 24.0304 30.1374 24.7071 29.4324C25.4121 28.7275 25.835 27.7688 25.835 26.7255C25.835 25.654 25.4121 24.6953 24.7071 24.0185C24.0304 23.3136 23.0717 22.8906 22.0002 22.8906ZM23.7202 28.4455C23.2691 28.8967 22.6769 29.1504 22.0002 29.1504C21.3235 29.1504 20.7313 28.8685 20.2801 28.4455C19.829 27.9944 19.5752 27.4022 19.5752 26.7255C19.5752 26.0487 19.8572 25.4566 20.2801 25.0054C20.7313 24.5543 21.3235 24.3005 22.0002 24.3005C22.6769 24.3005 23.2691 24.5825 23.7202 25.0054C24.1714 25.4566 24.4252 26.0487 24.4252 26.7255C24.4252 27.4022 24.1432 27.9944 23.7202 28.4455Z" fill="white"/>
<path d="M21.9996 19.2218C23.1839 19.2218 24.2554 18.7424 25.0449 17.9529C25.8345 17.1634 26.3138 16.0919 26.3138 14.9076C26.3138 13.7233 25.8345 12.6518 25.0449 11.8623C24.2554 11.0727 23.1839 10.5934 21.9996 10.5934C20.8153 10.5934 19.7438 11.0727 18.9543 11.8623C18.1648 12.6518 17.6854 13.7233 17.6854 14.9076C17.6854 16.0919 18.1648 17.1634 18.9543 17.9529C19.7438 18.7424 20.8153 19.2218 21.9996 19.2218ZM19.9694 12.8774C20.477 12.3698 21.2101 12.0315 21.9996 12.0315C22.7892 12.0315 23.5223 12.3416 24.0298 12.8774C24.5374 13.3849 24.8758 14.1181 24.8758 14.9076C24.8758 15.6971 24.5656 16.4302 24.0298 16.9378C23.5223 17.4453 22.7892 17.7837 21.9996 17.7837C21.2101 17.7837 20.477 17.4735 19.9694 16.9378C19.4619 16.4302 19.1235 15.6971 19.1235 14.9076C19.1235 14.1181 19.4337 13.4131 19.9694 12.8774Z" fill="white"/>
<path d="M22 16.5717C22.4512 16.5717 22.8459 16.3743 23.1561 16.0923C23.4663 15.7822 23.6355 15.3874 23.6355 14.9362C23.6355 14.4851 23.4381 14.0903 23.1561 13.7801C22.8459 13.47 22.4512 13.3008 22 13.3008C21.5489 13.3008 21.1541 13.4982 20.8439 13.7801C20.5337 14.0903 20.3646 14.4851 20.3646 14.9362C20.3646 15.3874 20.5337 15.7822 20.8439 16.0923C21.1541 16.4025 21.5489 16.5717 22 16.5717ZM21.6616 14.5979C21.7462 14.5133 21.859 14.4569 22 14.4569C22.1128 14.4569 22.2538 14.5133 22.3102 14.5979C22.3948 14.6825 22.4512 14.7952 22.4512 14.908C22.4512 15.049 22.3948 15.1618 22.3102 15.2182C22.2256 15.3028 22.1128 15.3592 22 15.3592C21.859 15.3592 21.7462 15.3028 21.6898 15.2182C21.6052 15.1336 21.5489 15.0208 21.5489 14.908C21.5489 14.7952 21.6052 14.6825 21.6616 14.5979Z" fill="white"/>
</svg>
