<svg width="161" height="161" viewBox="0 0 161 161" fill="none" xmlns="http://www.w3.org/2000/svg">
<path d="M159.962 80.4615C159.962 124.368 124.368 159.962 80.4618 159.962C36.5552 159.962 0.961792 124.368 0.961792 80.4615C0.961792 36.5549 36.5552 0.961548 80.4618 0.961548C124.368 0.961548 159.962 36.5549 159.962 80.4615Z" fill="#F2F4F7" stroke="#397DFF"/>
<path fill-rule="evenodd" clip-rule="evenodd" d="M80.4615 118.923C101.703 118.923 118.923 101.703 118.923 80.4615C118.923 59.2198 101.703 42 80.4615 42C59.2198 42 42 59.2198 42 80.4615C42 101.703 59.2198 118.923 80.4615 118.923Z" fill="#397DFF"/>
<path d="M96.0515 68.7693L74.6156 90.2052L64.872 80.4616" stroke="white" stroke-width="3" stroke-linecap="round" stroke-linejoin="round"/>
</svg>
