<svg width="155" height="50" viewBox="0 0 155 50" fill="none" xmlns="http://www.w3.org/2000/svg">
<g clip-path="url(#clip0)">
<path d="M146.011 30.7692H4.52922C2.36229 30.7692 0.605652 32.5259 0.605652 34.6928V42.2303C0.605652 44.3972 2.3623 46.1538 4.52923 46.1538H146.011C148.178 46.1538 149.935 44.3972 149.935 42.2303V34.6928C149.935 32.5259 148.178 30.7692 146.011 30.7692Z" fill="#2D3786"/>
<path d="M34.0082 3.37085H33.7101V3.6689V22.9833V23.2813H34.0082H42.3875C45.212 23.2813 47.1738 22.6498 48.4006 20.9416C49.6047 19.2648 50.0475 16.6146 50.0475 12.7326C50.0475 9.3767 49.5851 7.02117 48.3983 5.50747C47.1948 3.97241 45.3047 3.37085 42.6433 3.37085H34.0082ZM38.1641 7.53376H42.3875C43.7104 7.53376 44.421 7.73655 44.8608 8.45551C45.0943 8.83723 45.2672 9.38872 45.3793 10.1923C45.4911 10.9936 45.5396 12.0228 45.5396 13.3447C45.5396 14.6596 45.482 15.6812 45.3499 16.4751C45.2176 17.2701 45.0141 17.8139 44.7389 18.1912C44.207 18.9205 43.3294 19.1282 41.7432 19.1282H38.1641V7.53376Z" fill="#3F476B" stroke="#3F476B" stroke-width="0.596096" stroke-miterlimit="10"/>
<path d="M56.9378 14.722V14.424H56.6397H52.946H52.6479V14.722V16.7239C52.6479 19.0871 53.0415 20.7758 54.0739 21.8645C55.1106 22.9576 56.7228 23.375 58.9714 23.375C61.2375 23.375 62.892 22.9273 63.971 21.8286C65.0487 20.7311 65.4872 19.0501 65.4872 16.7461V2.88462V2.58657H65.1892H61.2619H60.9638V2.88462V16.7704C60.9638 17.298 60.9371 17.7064 60.8736 18.0243C60.8104 18.3407 60.7146 18.5476 60.5904 18.69C60.3466 18.9697 59.9042 19.1004 58.9714 19.1004C57.9344 19.1004 57.4911 18.9578 57.2634 18.6818C57.1469 18.5406 57.0617 18.3351 57.0085 18.0172C56.9551 17.6983 56.9378 17.2925 56.9378 16.7704V14.722Z" fill="#3F476B" stroke="#3F476B" stroke-width="0.596096" stroke-miterlimit="10"/>
<path d="M76.3981 10.7617L76.3971 10.7617L75.3006 14.6265L75.2783 14.9237C75.2783 14.9237 75.2783 14.9237 75.2783 14.9237C76.1422 14.9885 76.8236 15.0612 77.3612 15.1588C77.9011 15.2568 78.2757 15.3766 78.5374 15.5249C78.7898 15.6679 78.938 15.8376 79.0299 16.053C79.1265 16.2792 79.1695 16.576 79.1695 16.986C79.1695 17.8425 79.0334 18.3429 78.6183 18.6639C78.173 19.0083 77.3365 19.2075 75.7435 19.2075C74.9513 19.2075 74.3486 19.1953 73.8833 19.1351C73.4169 19.0748 73.1287 18.9705 72.9377 18.8167C72.7544 18.6692 72.6238 18.4459 72.5407 18.0616C72.4561 17.6705 72.4273 17.1438 72.4273 16.4221V16.1682V15.8701H72.1293H68.3876H68.0895V16.1682V17.194C68.0895 19.9783 68.948 21.5692 70.405 22.4316C71.8212 23.2697 73.7417 23.375 75.7455 23.375C78.9341 23.375 80.9165 22.8361 82.0885 21.6763C83.2643 20.5129 83.5504 18.7974 83.5504 16.6621C83.5504 14.4455 82.8973 13.0084 81.6195 12.1089C80.3715 11.2305 78.5778 10.9049 76.3981 10.7617Z" fill="#3F476B" stroke="#3F476B" stroke-width="0.596096" stroke-miterlimit="10"/>
<path d="M85.7787 6.79761V7.09565H86.0768H91.1413V22.7844V23.0825H91.4393H95.4527H95.7507V22.7844V7.09565H100.813H101.111V6.79761V3.1766V2.87855H100.813H86.0768H85.7787V3.1766V6.79761Z" fill="#3F476B" stroke="#3F476B" stroke-width="0.596096" stroke-miterlimit="10"/>
<path d="M111.497 2.58657C108.397 2.58657 106.307 3.10554 105.022 4.68951C103.755 6.25138 103.339 8.77481 103.339 12.5748C103.339 14.7633 103.422 16.531 103.652 17.9492C103.882 19.3668 104.263 20.4598 104.877 21.2806C106.121 22.942 108.23 23.375 111.497 23.375C114.677 23.375 116.782 22.8628 118.052 21.17C118.68 20.3334 119.083 19.234 119.332 17.8285C119.58 16.4229 119.677 14.6913 119.677 12.5748C119.677 8.81681 119.241 6.29514 117.962 4.72294C116.666 3.12965 114.573 2.58657 111.497 2.58657ZM111.497 19.1395C110.656 19.1395 110.029 19.111 109.548 18.9866C109.084 18.8665 108.772 18.6613 108.543 18.3053C108.303 17.9325 108.138 17.3686 108.036 16.4954C107.935 15.6265 107.902 14.4857 107.902 12.9828C107.902 11.4213 107.94 10.2517 108.047 9.37284C108.154 8.48913 108.327 7.93572 108.568 7.57988C108.798 7.24145 109.108 7.05533 109.572 6.95142C110.053 6.84365 110.672 6.83 111.497 6.83C112.309 6.83 112.923 6.84489 113.402 6.95401C113.864 7.05934 114.18 7.24757 114.415 7.58905C114.661 7.94682 114.84 8.50139 114.952 9.38307C115.064 10.2603 115.107 11.4269 115.107 12.9828C115.107 14.4752 115.07 15.6106 114.965 16.477C114.86 17.3474 114.689 17.9133 114.445 18.2893C114.212 18.6496 113.895 18.8585 113.431 18.9814C112.951 19.1085 112.328 19.1395 111.497 19.1395Z" fill="#3F476B" stroke="#3F476B" stroke-width="0.596096" stroke-miterlimit="10"/>
<path d="M122.575 3.37085H122.277V3.6689V22.9833V23.2813H122.575H126.463H126.761V22.9833V16.9749H130.917C131.724 16.9749 132.229 17.1365 132.535 17.4212C132.837 17.701 133.006 18.1572 133.006 18.8963V22.9833V23.2813H133.304H137.203H137.502V22.9833V18.5893C137.502 17.5414 137.311 16.6655 136.906 15.9868C136.615 15.4998 136.22 15.1256 135.73 14.8655C136.52 14.3887 137.008 13.6763 137.303 12.8752C137.665 11.8914 137.74 10.7642 137.74 9.74852C137.74 7.61009 137.272 5.99723 136.215 4.92303C135.156 3.8478 133.566 3.37085 131.458 3.37085H122.575ZM126.761 7.53376H131.052C131.97 7.53376 132.463 7.70717 132.753 8.06023C133.058 8.43284 133.206 9.08256 133.206 10.2257C133.206 11.2467 133.026 11.8772 132.686 12.2568C132.355 12.6276 131.813 12.8237 130.917 12.8237H126.761V7.53376Z" fill="#3F476B" stroke="#3F476B" stroke-width="0.596096" stroke-miterlimit="10"/>
<path d="M152.882 7.4575H153.18V7.15945V3.6689V3.37085H152.882H140.639H140.341V3.6689V22.9833V23.2813H140.639H152.882H153.18V22.9833V19.4986V19.2005H152.882H144.728V15.2423H152.491H152.789V14.9443V11.4596V11.1615H152.491H144.728V7.4575H152.882Z" fill="#3F476B" stroke="#3F476B" stroke-width="0.596096" stroke-miterlimit="10"/>
<path d="M28.1136 13.4615C28.1136 20.8962 21.9537 26.9231 14.3575 26.9231C6.76341 26.9231 0.605652 20.8962 0.605652 13.4615C0.605652 6.02683 6.76341 0 14.3575 0C21.9537 0 28.1136 6.02683 28.1136 13.4615Z" fill="#397DFF"/>
<path d="M22.217 18.8955C22.2211 19.6049 21.5743 20.1849 20.79 20.1849L7.93738 20.1923C7.14897 20.1923 6.50429 19.6123 6.50429 18.9047L6.50018 18.249C6.50018 17.5415 7.14692 16.9614 7.93327 16.9614L20.7859 16.9559C21.5743 16.9559 22.219 17.5359 22.219 18.2434V18.8955H22.217ZM20.6874 14.9885C21.4737 14.9885 21.7673 14.5027 21.3423 13.906L15.1295 5.25519C14.7025 4.65852 14.0044 4.65852 13.5773 5.25519L7.37687 13.9097C6.94982 14.5064 7.24137 14.9922 8.03388 14.9922L20.6874 14.9885Z" fill="white"/>
<path d="M148.958 34.6154H9.44133C7.2744 34.6154 5.51776 36.372 5.51776 38.5389V46.0764C5.51776 48.2433 7.27441 50 9.44133 50H148.958C151.125 50 152.882 48.2433 152.882 46.0764V38.5389C152.882 36.372 151.125 34.6154 148.958 34.6154Z" fill="#397DFF"/>
<path d="M38.0246 39.3887H38.9957V44.6855L43.0566 39.3887H43.959V46.2549H42.9977V40.9679L38.927 46.2549H38.0246V39.3887ZM52.1028 39.3887V46.2549H51.1219V43.1945H47.1787V46.2549H46.1978V39.3887H47.1787V42.3411H51.1219V39.3887H52.1028ZM57.4125 46.3334C56.7259 46.3334 56.1046 46.183 55.5488 45.8822C54.9995 45.5748 54.5679 45.1563 54.254 44.6266C53.9401 44.0904 53.7832 43.4888 53.7832 42.8218C53.7832 42.1548 53.9401 41.5564 54.254 41.0267C54.5679 40.4905 55.0028 40.072 55.5586 39.7712C56.1144 39.4639 56.7357 39.3102 57.4223 39.3102C57.9585 39.3102 58.449 39.4017 58.8936 39.5848C59.3383 39.7614 59.7176 40.0262 60.0315 40.3794L59.3939 40.9973C58.8773 40.4546 58.2332 40.1832 57.4615 40.1832C56.9515 40.1832 56.4904 40.2976 56.0785 40.5265C55.6665 40.7554 55.3428 41.0725 55.1074 41.478C54.8785 41.8769 54.7641 42.3248 54.7641 42.8218C54.7641 43.3188 54.8785 43.77 55.1074 44.1754C55.3428 44.5743 55.6665 44.8882 56.0785 45.1171C56.4904 45.3459 56.9515 45.4604 57.4615 45.4604C58.2266 45.4604 58.8707 45.1857 59.3939 44.6364L60.0315 45.2544C59.7176 45.6075 59.335 45.8756 58.8838 46.0587C58.4391 46.2418 57.9487 46.3334 57.4125 46.3334ZM66.1224 40.242H63.7683V46.2549H62.807V40.242H60.4627V39.3887H66.1224V40.242ZM71.5309 44.5383H67.882L67.1267 46.2549H66.1164L69.2258 39.3887H70.1969L73.3161 46.2549H72.2862L71.5309 44.5383ZM71.1876 43.7536L69.7064 40.3892L68.2253 43.7536H71.1876ZM80.2387 39.3887V46.2549H79.2774V40.242H76.2366L76.168 42.2529C76.1353 43.2011 76.0568 43.9694 75.9326 44.558C75.8148 45.1465 75.6252 45.5912 75.3636 45.892C75.1021 46.1862 74.7489 46.3334 74.3043 46.3334C74.1016 46.3334 73.8956 46.3072 73.6863 46.2549L73.755 45.3819C73.8596 45.4081 73.9642 45.4211 74.0689 45.4211C74.35 45.4211 74.5757 45.31 74.7457 45.0876C74.9157 44.8588 75.0432 44.5187 75.1282 44.0675C75.2132 43.6163 75.2688 43.0212 75.295 42.2823L75.4029 39.3887H80.2387ZM88 39.3887V46.2549H87.0387V40.242H83.9979L83.9293 42.2529C83.8966 43.2011 83.8181 43.9694 83.6939 44.558C83.5762 45.1465 83.3865 45.5912 83.1249 45.892C82.8634 46.1862 82.5103 46.3334 82.0656 46.3334C81.8629 46.3334 81.6569 46.3072 81.4476 46.2549L81.5163 45.3819C81.6209 45.4081 81.7255 45.4211 81.8302 45.4211C82.1114 45.4211 82.337 45.31 82.507 45.0876C82.677 44.8588 82.8045 44.5187 82.8895 44.0675C82.9745 43.6163 83.0301 43.0212 83.0563 42.2823L83.1642 39.3887H88ZM95.2688 39.3887V46.2549H94.3075V44.2539H92.4144C92.2967 44.2539 92.2084 44.2506 92.1495 44.2441L90.7763 46.2549H89.7365L91.2569 44.0773C90.7665 43.9138 90.3905 43.6425 90.1289 43.2632C89.8673 42.8774 89.7365 42.4098 89.7365 41.8605C89.7365 41.0823 89.985 40.4774 90.482 40.0459C90.9855 39.6077 91.6624 39.3887 92.5125 39.3887H95.2688ZM90.7272 41.8507C90.7272 42.3608 90.8744 42.7531 91.1686 43.0278C91.4694 43.2959 91.9108 43.4299 92.4928 43.4299H94.3075V40.242H92.5517C91.9632 40.242 91.512 40.3794 91.1981 40.654C90.8842 40.9287 90.7272 41.3276 90.7272 41.8507ZM104.337 45.4015V47.8145H103.424V46.2549H97.5096V39.3887H98.4807V45.4015H102.306V39.3887H103.277V45.4015H104.337ZM105.74 39.3887H106.711V44.6855L110.772 39.3887H111.675V46.2549H110.713V40.9679L106.643 46.2549H105.74V39.3887ZM113.913 39.3887H114.885V44.6855L118.945 39.3887H119.848V46.2549H118.887V40.9679L114.816 46.2549H113.913V39.3887Z" fill="white"/>
</g>
<defs>
<clipPath id="clip0">
<rect width="154.241" height="50" fill="white" transform="translate(0.605652)"/>
</clipPath>
</defs>
</svg>
